<?xml version="1.0" encoding="UTF-8"?><svg id="Layer_2" xmlns="http://www.w3.org/2000/svg" viewBox="0 0 628.11 235.62"><defs><style>.cls-1{fill:#fff;}</style></defs><g id="Layer_1-2"><path class="cls-1" d="m142.81,123.16h-43.49V24.27l-42.92,68.24-31.88-33.6v64.24h-12.45V0h17.32l41.68,44.57L99.32,0h43.49v123.16Z"/><path class="cls-1" d="m205.61,123.16h-43.49V0h43.49v123.16Z"/><path class="cls-1" d="m307.65,123.16h-90.22l43.94-110.8h-41.5V0h84.45v22.92l-35.1,87.43h38.44v12.81Z"/><path class="cls-1" d="m429.27,0v81.74c0,10.71-.87,18.26-2.62,22.65-3.61,9.02-10.47,15.13-20.57,18.32-6.5,2.04-16.06,3.07-28.69,3.07-11.85,0-21.08-.87-27.7-2.62-12.09-3.19-20.54-9.08-25.35-17.68-2.83-5.05-4.24-12.54-4.24-22.47V0h43.49v86.1c0,9.92,1.71,16.71,5.14,20.38,4.15,4.45,10.95,6.67,20.39,6.67,11.49,0,19.46-3.15,23.91-9.47,2.53-3.61,3.79-10.28,3.79-20.01V0h12.45Z"/><path class="cls-1" d="m559.74,123.16h-47.28l-22.38-55.04v55.04h-43.49V0h43.49v41.32L534.47,0h18.28l-32.71,30.94,39.7,92.21Z"/><path class="cls-1" d="m614.05,123.16h-43.49V0h43.49v123.16Z"/><path class="cls-1" d="m0,187.78c6.97-4.02,12.92-7.57,19.02-10.95,31.3-17.34,65.25-29.78,103.07-34.56,30.88-3.9,61.84-2.79,92.55,1.15,31.35,4.02,62.49,9.08,93.8,13.3,41.92,5.66,84.09,8.31,126.64,6.04,44.84-2.39,88.4-9.83,130.79-21.52,19.03-5.25,37.6-11.59,56.38-17.42,1.7-.53,3.45-.97,5.87-.38-6.36,3.25-12.56,6.72-19.1,9.71-31.73,14.51-64.42,27.43-99.28,36.45-25.14,6.51-50.74,11.31-77.12,13.83-29.67,2.83-59.27,3.58-88.89.89-23.88-2.16-47.71-4.83-71.43-7.9-38.58-5-76.91-11.35-116.05-13.27-23.31-1.14-46.45-.09-69.44,2.97-27.7,3.68-54.05,10.76-79.18,20.75-1.53.61-3.15,1.07-4.76,1.54-.31.09-.77-.15-2.85-.62Z"/><path class="cls-1" d="m65.43,197.64h4.1v29.27h-4.1v-29.27Zm1.79,12.99h9.98c.78,0,1.47-.19,2.07-.56.6-.38,1.07-.91,1.4-1.6.33-.69.49-1.49.49-2.38s-.16-1.69-.49-2.38c-.33-.69-.79-1.22-1.39-1.6-.6-.38-1.29-.56-2.08-.56h-9.98v-3.9h9.82c1.69,0,3.17.35,4.46,1.05s2.27,1.69,2.98,2.97c.7,1.28,1.06,2.76,1.06,4.44s-.36,3.16-1.07,4.44c-.71,1.28-1.71,2.27-2.99,2.97-1.28.7-2.76,1.05-4.44,1.05h-9.82v-3.9Zm7.97,3l4.08-.93,7.48,14.2h-4.87l-6.7-13.28Z"/><path class="cls-1" d="m96.73,227.21s-.68-.36-2.05-1.09c-1.37-.72-2.41-1.79-3.13-3.19-.72-1.4-1.08-3.09-1.08-5.08v-2.35c0-2.06.35-3.83,1.04-5.29.69-1.46,1.69-2.58,3.01-3.34,1.31-.76,2.9-1.15,4.75-1.15,1.74,0,3.23.44,4.47,1.31,1.23.87,2.18,2.13,2.83,3.78s.98,3.63.98,5.93v1.37h-14.08v-3.3h10.18c-.12-1.7-.56-3.03-1.32-3.97-.76-.95-1.77-1.42-3.05-1.42-1.56,0-2.76.51-3.61,1.53-.85,1.02-1.28,2.46-1.28,4.33v2.66c0,1.73.46,3.06,1.37,3.98.91.93,2.21,1.39,3.88,1.39.83,0,1.66-.17,2.47-.5s1.55-.8,2.19-1.41l2.7,2.7c-1.03.99-2.19,1.76-3.48,2.3s-2.58.81-3.88.81h-2.9Z"/><path class="cls-1" d="m118.7,227.21s-.54-.12-1.62-.36c-1.08-.24-2.09-.6-3.03-1.09-.94-.48-1.8-1.09-2.59-1.81l2.43-3c1.13.86,2.25,1.5,3.36,1.93,1.11.43,2.21.64,3.3.64,1.62,0,2.84-.25,3.65-.75.81-.5,1.22-1.26,1.22-2.26,0-.67-.22-1.17-.66-1.51-.44-.33-.99-.56-1.65-.67-.66-.11-1.58-.22-2.78-.31-.11,0-.22,0-.34,0s-.23-.02-.34-.03c-.05,0-.11,0-.16,0-.05,0-.11-.01-.16-.01-1.35-.11-2.5-.3-3.44-.59-.94-.29-1.72-.83-2.34-1.62-.62-.79-.94-1.92-.94-3.4s.3-2.7.91-3.68c.6-.98,1.5-1.71,2.7-2.2,1.19-.49,2.69-.73,4.49-.73,1.09,0,2.12.1,3.11.3.99.2,1.93.5,2.83.9s1.76.9,2.6,1.5l-2.47,3c-1.05-.67-2.08-1.17-3.09-1.51s-2-.5-2.97-.5c-1.4,0-2.44.24-3.14.71-.7.48-1.05,1.19-1.05,2.14,0,.56.2.99.59,1.27.4.28.9.47,1.5.56.6.09,1.46.17,2.57.24.08.01.16.02.25.02s.18,0,.27.02h.12s.08,0,.12.02c1.46.09,2.71.29,3.73.58s1.89.88,2.58,1.75,1.05,2.13,1.05,3.78c0,1.5-.32,2.75-.97,3.73-.64.99-1.61,1.73-2.91,2.22-1.29.5-2.92.74-4.88.74h-1.85Z"/><path class="cls-1" d="m134.53,206.03h4.1v29.37h-4.1v-29.37Zm5.95,20.25c-.97-.62-1.68-1.5-2.13-2.65l.28-4.37c0,.9.16,1.66.48,2.29.32.63.79,1.11,1.4,1.45.61.33,1.35.5,2.22.5,1.35,0,2.4-.41,3.15-1.24.74-.83,1.12-1.99,1.12-3.49v-4.53c0-1.53-.37-2.72-1.12-3.56s-1.79-1.27-3.15-1.27c-.87,0-1.61.16-2.22.48-.61.32-1.08.79-1.4,1.42-.32.62-.48,1.37-.48,2.24l-.42-4.02c.63-1.22,1.46-2.16,2.47-2.83s2.15-1,3.4-1c1.48,0,2.74.33,3.79,1s1.85,1.63,2.4,2.91c.55,1.27.82,2.81.82,4.61v4.55c0,1.77-.28,3.29-.85,4.55-.56,1.26-1.39,2.22-2.47,2.89-1.09.66-2.39,1-3.9,1-1.3,0-2.43-.31-3.4-.94Z"/><path class="cls-1" d="m160.3,226.15c-1.29-.71-2.27-1.75-2.95-3.11s-1.02-3-1.02-4.92v-3.4c0-1.89.34-3.51,1.02-4.86.68-1.35,1.66-2.37,2.95-3.08,1.29-.7,2.84-1.06,4.65-1.06s3.36.35,4.65,1.06,2.27,1.73,2.95,3.08c.68,1.35,1.02,2.97,1.02,4.86v3.46c0,1.9-.34,3.53-1.02,4.88-.68,1.35-1.66,2.38-2.95,3.09-1.29.71-2.84,1.07-4.65,1.07s-3.36-.36-4.65-1.07Zm7.98-4.18c.78-.9,1.18-2.16,1.18-3.78v-3.46c0-1.62-.39-2.88-1.18-3.76-.78-.88-1.89-1.33-3.33-1.33s-2.54.44-3.33,1.33-1.18,2.14-1.18,3.76v3.46c0,1.62.39,2.88,1.18,3.78s1.89,1.35,3.33,1.35,2.54-.45,3.33-1.35Z"/><path class="cls-1" d="m179.39,206.03h4.1v20.88h-4.1v-20.88Zm12.67,8.23c0-1.47-.38-2.62-1.15-3.42-.76-.8-1.84-1.21-3.22-1.21s-2.38.36-3.11,1.07c-.73.71-1.1,1.71-1.1,3l-.42-4.02c.64-1.26,1.48-2.23,2.52-2.92,1.04-.68,2.19-1.03,3.45-1.03,2.27,0,4.02.74,5.26,2.22,1.24,1.48,1.86,3.58,1.86,6.29v12.67h-4.1v-12.65Z"/><path class="cls-1" d="m207.93,227.21s-.54-.12-1.62-.36c-1.08-.24-2.09-.6-3.03-1.09-.94-.48-1.8-1.09-2.59-1.81l2.43-3c1.13.86,2.25,1.5,3.36,1.93,1.11.43,2.21.64,3.3.64,1.62,0,2.84-.25,3.65-.75.81-.5,1.22-1.26,1.22-2.26,0-.67-.22-1.17-.66-1.51-.44-.33-.99-.56-1.65-.67-.66-.11-1.58-.22-2.78-.31-.11,0-.22,0-.34,0s-.23-.02-.34-.03c-.05,0-.11,0-.16,0-.05,0-.11-.01-.16-.01-1.35-.11-2.5-.3-3.44-.59-.94-.29-1.72-.83-2.34-1.62-.62-.79-.94-1.92-.94-3.4s.3-2.7.91-3.68c.6-.98,1.5-1.71,2.7-2.2,1.19-.49,2.69-.73,4.49-.73,1.09,0,2.12.1,3.11.3.99.2,1.93.5,2.83.9s1.76.9,2.6,1.5l-2.47,3c-1.05-.67-2.08-1.17-3.09-1.51s-2-.5-2.97-.5c-1.4,0-2.44.24-3.14.71-.7.48-1.05,1.19-1.05,2.14,0,.56.2.99.59,1.27.4.28.9.47,1.5.56.6.09,1.46.17,2.57.24.08.01.16.02.25.02s.18,0,.27.02h.12s.08,0,.12.02c1.46.09,2.71.29,3.73.58s1.89.88,2.58,1.75,1.05,2.13,1.05,3.78c0,1.5-.32,2.75-.97,3.73-.64.99-1.61,1.73-2.91,2.22-1.29.5-2.92.74-4.88.74h-1.85Z"/><path class="cls-1" d="m223.76,197.66h4.1v4.1h-4.1v-4.1Zm0,8.37h4.1v20.88h-4.1v-20.88Z"/><path class="cls-1" d="m234.1,197.66h4.1v29.25h-4.1v-29.25Zm5.95,28.62c-.97-.62-1.68-1.5-2.13-2.65l.28-4.37c0,.9.16,1.66.48,2.29.32.63.79,1.11,1.4,1.45s1.35.5,2.22.5c1.35,0,2.4-.41,3.15-1.24.74-.83,1.12-1.99,1.12-3.49v-4.53c0-1.53-.37-2.72-1.12-3.56s-1.79-1.27-3.15-1.27c-.87,0-1.61.16-2.22.48-.61.32-1.08.79-1.4,1.42-.32.62-.48,1.37-.48,2.24l-.42-4.02c.63-1.22,1.46-2.16,2.47-2.83s2.15-1,3.4-1c1.48,0,2.74.33,3.79,1s1.85,1.63,2.4,2.91c.55,1.27.82,2.81.82,4.61v4.55c0,1.77-.28,3.29-.84,4.55-.56,1.26-1.39,2.22-2.47,2.89-1.09.66-2.39,1-3.9,1-1.3,0-2.43-.31-3.4-.94Z"/><path class="cls-1" d="m256.51,197.66h4.1v4.1h-4.1v-4.1Zm0,8.37h4.1v20.88h-4.1v-20.88Z"/><path class="cls-1" d="m270.96,221.52c0,.51.11.9.33,1.18.22.27.53.41.94.41h1.93v3.9h-2.41c-1.56,0-2.76-.48-3.61-1.45s-1.28-2.33-1.28-4.08v-23.82h4.1v23.86Z"/><path class="cls-1" d="m278.78,197.66h4.1v4.1h-4.1v-4.1Zm0,8.37h4.1v20.88h-4.1v-20.88Z"/><path class="cls-1" d="m287.51,206.03h9.41v3.7h-9.41v-3.7Zm3.33,19.58c-.78-.93-1.18-2.31-1.18-4.13v-21.52h4.1v21.56c0,.51.1.9.3,1.18.2.27.5.41.89.41h1.97v3.9h-2.37c-1.69,0-2.93-.47-3.71-1.4Z"/><path class="cls-1" d="m300.35,206.03h4.18l6.42,18.15-2.27,4.45-8.33-22.59Zm18.49,0l-8.89,25.77c-.32.95-.75,1.71-1.27,2.26-.52.56-1.17.96-1.93,1.2-.76.24-1.7.36-2.82.36h-.83v-3.94h.83c.76,0,1.37-.15,1.82-.46s.84-.84,1.18-1.59l7.72-23.6h4.18Z"/><path class="cls-1" d="m331.91,206.03h9.41v3.7h-9.41v-3.7Zm3.33,19.58c-.78-.93-1.18-2.31-1.18-4.13v-21.52h4.1v21.56c0,.51.1.9.3,1.18.2.27.5.41.89.41h1.97v3.9h-2.37c-1.69,0-2.93-.47-3.71-1.4Z"/><path class="cls-1" d="m350.31,226.15c-1.29-.71-2.27-1.75-2.95-3.11s-1.02-3-1.02-4.92v-3.4c0-1.89.34-3.51,1.02-4.86.68-1.35,1.66-2.37,2.95-3.08s2.84-1.06,4.65-1.06,3.36.35,4.65,1.06c1.29.7,2.27,1.73,2.95,3.08.68,1.35,1.02,2.97,1.02,4.86v3.46c0,1.9-.34,3.53-1.02,4.88-.68,1.35-1.66,2.38-2.95,3.09-1.29.71-2.84,1.07-4.65,1.07s-3.36-.36-4.65-1.07Zm7.98-4.18c.79-.9,1.18-2.16,1.18-3.78v-3.46c0-1.62-.39-2.88-1.18-3.76-.78-.88-1.89-1.33-3.33-1.33s-2.54.44-3.33,1.33-1.18,2.14-1.18,3.76v3.46c0,1.62.39,2.88,1.18,3.78s1.89,1.35,3.33,1.35,2.54-.45,3.33-1.35Z"/><path class="cls-1" d="m386.12,227.21s-.68-.36-2.05-1.09c-1.37-.72-2.41-1.79-3.13-3.19-.72-1.4-1.08-3.09-1.08-5.08v-2.35c0-2.06.34-3.83,1.04-5.29.69-1.46,1.69-2.58,3.01-3.34,1.31-.76,2.9-1.15,4.75-1.15,1.74,0,3.23.44,4.47,1.31,1.23.87,2.17,2.13,2.83,3.78.65,1.65.98,3.63.98,5.93v1.37h-14.08v-3.3h10.18c-.12-1.7-.56-3.03-1.32-3.97s-1.77-1.42-3.05-1.42c-1.56,0-2.76.51-3.61,1.53-.85,1.02-1.28,2.46-1.28,4.33v2.66c0,1.73.46,3.06,1.37,3.98.91.93,2.21,1.39,3.88,1.39.83,0,1.66-.17,2.47-.5s1.55-.8,2.19-1.41l2.7,2.7c-1.03.99-2.19,1.76-3.48,2.3s-2.58.81-3.88.81h-2.9Z"/><path class="cls-1" d="m403.46,225.62c-1.27-1.07-1.91-2.69-1.91-4.86s.58-3.61,1.75-4.65c1.17-1.03,2.93-1.55,5.29-1.55h5.93l.28,3.3h-6.2c-1.07,0-1.87.24-2.4.71-.53.48-.79,1.2-.79,2.18,0,1.06.35,1.84,1.06,2.35s1.77.76,3.21.76c1.57,0,2.74-.17,3.51-.5.77-.34,1.16-.86,1.16-1.57l.42,2.94c-.36.56-.81,1.03-1.34,1.39-.53.36-1.14.63-1.84.81s-1.48.27-2.35.27c-2.58,0-4.5-.53-5.77-1.6Zm10.88-11.94c0-1.37-.37-2.43-1.1-3.19s-1.77-1.14-3.11-1.14c-.83,0-1.65.13-2.44.38-.8.26-1.51.61-2.12,1.07l-3-2.05c.79-.95,1.83-1.69,3.13-2.22,1.29-.53,2.73-.79,4.31-.79,1.73,0,3.21.31,4.45.92,1.23.61,2.17,1.5,2.82,2.66s.97,2.56.97,4.19v13.42h-3.9v-13.24Z"/><path class="cls-1" d="m430.05,227.21l-2.02-1.07c-1.35-.71-2.38-1.74-3.09-3.1-.71-1.35-1.07-2.99-1.07-4.91v-3.44c0-1.89.36-3.51,1.07-4.85.71-1.34,1.74-2.36,3.09-3.07,1.35-.7,2.97-1.06,4.88-1.06,1.09,0,2.11.13,3.07.39s1.82.64,2.58,1.14,1.4,1.1,1.91,1.81l-2.96,2.66c-.59-.67-1.28-1.19-2.07-1.55-.79-.36-1.62-.54-2.47-.54-1.58,0-2.81.44-3.68,1.33-.87.88-1.31,2.13-1.31,3.74v3.44c0,1.65.43,2.92,1.3,3.82.86.9,2.09,1.35,3.69,1.35.87,0,1.7-.19,2.49-.58.79-.39,1.47-.94,2.05-1.65l2.96,2.86c-.52.7-1.17,1.29-1.93,1.78-.76.49-1.63.86-2.58,1.12-.96.25-1.98.38-3.05.38h-2.86Z"/><path class="cls-1" d="m445,197.66h4.1v29.25h-4.1v-29.25Zm12.67,16.6c0-1.47-.38-2.62-1.15-3.42s-1.84-1.21-3.22-1.21-2.38.35-3.11,1.05c-.73.7-1.1,1.68-1.1,2.96l-.42-4.02c.64-1.23,1.49-2.19,2.53-2.87,1.04-.68,2.19-1.02,3.45-1.02,2.27,0,4.02.74,5.26,2.22,1.24,1.48,1.86,3.58,1.86,6.29v12.67h-4.1v-12.65Z"/><path class="cls-1" d="m482.44,226.15c-1.29-.71-2.27-1.75-2.95-3.11s-1.02-3-1.02-4.92v-3.4c0-1.89.34-3.51,1.02-4.86.68-1.35,1.66-2.37,2.95-3.08s2.84-1.06,4.65-1.06,3.36.35,4.65,1.06c1.29.7,2.27,1.73,2.95,3.08.68,1.35,1.02,2.97,1.02,4.86v3.46c0,1.9-.34,3.53-1.02,4.88-.68,1.35-1.66,2.38-2.95,3.09-1.29.71-2.84,1.07-4.65,1.07s-3.36-.36-4.65-1.07Zm7.98-4.18c.79-.9,1.18-2.16,1.18-3.78v-3.46c0-1.62-.39-2.88-1.18-3.76-.78-.88-1.89-1.33-3.33-1.33s-2.54.44-3.33,1.33-1.18,2.14-1.18,3.76v3.46c0,1.62.39,2.88,1.18,3.78s1.89,1.35,3.33,1.35,2.54-.45,3.33-1.35Z"/><path class="cls-1" d="m501.53,206.03h4.1v20.88h-4.1v-20.88Zm10.12,3.94c-.55-.23-1.19-.34-1.91-.34-1.3,0-2.31.36-3.03,1.08-.72.72-1.08,1.71-1.08,2.99l-.42-4.02c.64-1.25,1.48-2.22,2.5-2.91,1.02-.69,2.15-1.04,3.38-1.04.95,0,1.81.14,2.58.41.77.27,1.45.68,2.02,1.22l-2.67,3.62c-.36-.44-.82-.78-1.37-1.01Z"/><path class="cls-1" d="m521.41,226.28c-1.08-.66-1.9-1.63-2.46-2.91-.56-1.27-.84-2.8-.84-4.59v-4.61c0-1.8.27-3.33.82-4.61s1.35-2.24,2.4-2.91,2.32-1,3.79-1c1.23,0,2.36.32,3.39.96,1.03.64,1.85,1.55,2.48,2.72l-.42,4.26c0-.88-.16-1.64-.48-2.27-.32-.63-.79-1.11-1.4-1.44-.61-.33-1.35-.49-2.22-.49-1.35,0-2.4.42-3.15,1.27-.74.84-1.12,2.03-1.12,3.56v4.55c0,1.52.37,2.69,1.12,3.51.74.82,1.79,1.24,3.15,1.24.87,0,1.61-.17,2.22-.51s1.08-.83,1.4-1.48c.32-.64.48-1.42.48-2.31l.28,4.41c-.42,1.03-1.1,1.9-2.04,2.6s-2.11,1.05-3.49,1.05c-1.53,0-2.83-.33-3.91-1Zm9.16-28.62h4.1v29.25h-4.1v-29.25Z"/><path class="cls-1" d="m546.57,227.21s-.68-.36-2.05-1.09c-1.37-.72-2.41-1.79-3.13-3.19-.72-1.4-1.08-3.09-1.08-5.08v-2.35c0-2.06.34-3.83,1.04-5.29.69-1.46,1.69-2.58,3.01-3.34,1.31-.76,2.9-1.15,4.75-1.15,1.74,0,3.23.44,4.47,1.31,1.23.87,2.17,2.13,2.83,3.78.65,1.65.98,3.63.98,5.93v1.37h-14.08v-3.3h10.18c-.12-1.7-.56-3.03-1.32-3.97s-1.77-1.42-3.05-1.42c-1.56,0-2.76.51-3.61,1.53-.85,1.02-1.28,2.46-1.28,4.33v2.66c0,1.73.46,3.06,1.37,3.98.91.93,2.21,1.39,3.88,1.39.83,0,1.66-.17,2.47-.5s1.55-.8,2.19-1.41l2.7,2.7c-1.03.99-2.19,1.76-3.48,2.3s-2.58.81-3.88.81h-2.9Z"/><path class="cls-1" d="m563,206.03h4.1v20.88h-4.1v-20.88Zm10.12,3.94c-.55-.23-1.19-.34-1.91-.34-1.3,0-2.31.36-3.03,1.08-.72.72-1.08,1.71-1.08,2.99l-.42-4.02c.64-1.25,1.48-2.22,2.5-2.91,1.02-.69,2.15-1.04,3.38-1.04.95,0,1.81.14,2.58.41.77.27,1.45.68,2.02,1.22l-2.67,3.62c-.36-.44-.82-.78-1.37-1.01Z"/></g></svg>