<svg xmlns="http://www.w3.org/2000/svg" width="20" height="13.339" viewBox="0 0 20 13.339">
  <path id="Icon_ionic-ios-arrow-round-forward" data-name="Icon ionic-ios-arrow-round-forward" d="M20.629,11.507a.908.908,0,0,0-.007,1.278l4.224,4.231H8.771a.9.9,0,0,0,0,1.806H24.839l-4.224,4.231a.914.914,0,0,0,.007,1.278.9.9,0,0,0,1.271-.007l5.724-5.766h0a1.014,1.014,0,0,0,.188-.285.862.862,0,0,0,.069-.347.905.905,0,0,0-.257-.632l-5.724-5.766A.885.885,0,0,0,20.629,11.507Z" transform="translate(-7.875 -11.252)" fill="#00a651"/>
</svg>
